<svg width="166" height="30" viewBox="0 0 166 30" fill="none" xmlns="http://www.w3.org/2000/svg">
<path d="M60.7978 1.50806H56.236V4.86881H52.6354V9.54576H56.236V29.9999H60.7978V9.54576H64.4001V4.86881H60.7978V1.50806Z" fill="url(#paint0_linear_1_593)"/>
<path d="M4.5618 0H0V30H4.5618V0Z" fill="url(#paint1_linear_1_593)"/>
<path d="M85.8434 12.4233C85.8434 8.38905 82.3648 5.1157 77.8865 4.88263L67.7767 4.86206V9.54587H78.0236C78.8265 9.49045 79.6184 9.76125 80.2281 10.2997C80.8377 10.8382 81.2162 11.601 81.2816 12.4233V14.3753H73.425C71.5399 14.3767 69.7323 15.1447 68.3989 16.5109C67.0654 17.877 66.315 19.7297 66.3124 21.6624V22.713C66.3146 24.6449 67.0641 26.4971 68.3966 27.8632C69.7291 29.2293 71.5356 29.9978 73.42 30H77.6208V29.9915H78.4398H78.5418C79.0656 29.9738 79.58 29.8439 80.0518 29.6101C80.5237 29.3763 80.9426 29.0439 81.2816 28.6341V30.0052H85.8434V13.042L85.8183 12.8946V12.8843C85.8317 12.7318 85.8434 12.5793 85.8434 12.4233ZM76.2116 25.3231H73.7042C73.3332 25.3235 72.9658 25.2491 72.6229 25.1039C72.28 24.9588 71.9683 24.7458 71.7056 24.4772C71.443 24.2086 71.2345 23.8895 71.0922 23.5383C70.9498 23.1871 70.8763 22.8105 70.8759 22.4302V21.9469C70.8767 21.1796 71.1745 20.4441 71.7039 19.9017C72.2332 19.3593 72.9508 19.0545 73.6992 19.054H81.2832V23.6504C80.9919 24.1573 80.5765 24.5774 80.078 24.869C79.5795 25.1606 79.0154 25.3136 78.4415 25.3128H78.2309C77.6492 25.3214 76.9839 25.3231 76.2116 25.3231Z" fill="url(#paint2_linear_1_593)"/>
<path d="M20.9451 4.88944L19.3688 4.87916H18.9442H17.8025V4.89287H16.7996H16.6993C16.1756 4.91001 15.6612 5.0395 15.1893 5.27299C14.7174 5.50648 14.2984 5.83879 13.9595 6.24848V4.87744H9.3927V30H13.9545V11.2219C14.2451 10.7142 14.6604 10.2934 15.159 10.0014C15.6575 9.70945 16.222 9.55651 16.7962 9.55782H17.0068C17.5869 9.55782 18.2522 9.55782 19.0228 9.55782H21.0822C21.8851 9.5024 22.677 9.77321 23.2867 10.3117C23.8963 10.8501 24.2748 11.613 24.3402 12.4353V30H28.902V12.4233C28.902 8.38901 25.4234 5.11566 20.9451 4.88944Z" fill="url(#paint3_linear_1_593)"/>
<path d="M89.9606 8.15767L89.9472 10.425V21.6264L89.9589 21.8423H89.9672C90.1879 26.4336 93.3806 30 97.3223 30H109.485V25.3231H97.3089C96.5069 25.256 95.7628 24.868 95.2376 24.243C94.7124 23.6179 94.4482 22.806 94.5023 21.9829V8.01714C94.4478 7.19388 94.7118 6.38175 95.2371 5.75659C95.7624 5.13143 96.5067 4.74356 97.3089 4.67695H109.471V0H97.3089C93.374 0 90.1812 3.56641 89.9606 8.15767Z" fill="#1C1C1C"/>
<path d="M131.65 12.4233C131.65 8.38905 128.172 5.1157 123.693 4.88263L113.584 4.86206V9.54587H123.831C124.633 9.49045 125.425 9.76125 126.035 10.2997C126.645 10.8382 127.023 11.601 127.088 12.4233V14.3753H119.232C117.348 14.3781 115.541 15.1467 114.209 16.5127C112.877 17.8787 112.127 19.7306 112.124 21.6624V22.713C112.127 24.6449 112.876 26.4971 114.209 27.8632C115.541 29.2293 117.348 29.9978 119.232 30H123.433V29.9915H124.252H124.354C124.877 29.9738 125.392 29.8441 125.863 29.6106C126.335 29.3771 126.754 29.0451 127.093 28.6358V30.0069H131.655V13.042L131.63 12.8946C131.639 12.737 131.65 12.5827 131.65 12.4233ZM122.027 25.3231H119.519C119.147 25.3253 118.778 25.2522 118.434 25.1079C118.09 24.9635 117.776 24.7509 117.512 24.4821C117.248 24.2132 117.039 23.8936 116.895 23.5415C116.752 23.1894 116.678 22.8117 116.678 22.4302V21.9469C116.679 21.1796 116.976 20.4441 117.506 19.9017C118.035 19.3593 118.753 19.0545 119.501 19.054H127.085V23.6504C126.794 24.1573 126.378 24.5774 125.88 24.869C125.381 25.1606 124.817 25.3136 124.243 25.3128H124.031C123.456 25.3214 122.791 25.3231 122.027 25.3231Z" fill="#1C1C1C"/>
<path d="M161.438 0V6.24679C161.1 5.83723 160.681 5.50499 160.209 5.2715C159.738 5.03801 159.224 4.90845 158.7 4.89117H157.59V4.8689H154.66L154.448 4.88089V4.88946C149.969 5.11568 146.491 8.38903 146.491 12.4302V22.4507C146.491 26.485 149.969 29.7584 154.448 29.9914L156.024 30.0017H156.417H157.587V29.9914H158.59H158.7C159.222 29.9729 159.735 29.8427 160.205 29.6093C160.675 29.3758 161.092 29.0442 161.43 28.6358V30.0069H165.992V0H161.438ZM156.37 25.3231H154.312C153.509 25.3789 152.717 25.1083 152.107 24.5698C151.497 24.0313 151.118 23.2682 151.053 22.4456V12.4233C151.118 11.6007 151.497 10.8376 152.107 10.2991C152.717 9.76055 153.509 9.48996 154.312 9.54585H156.37C157.141 9.54585 157.806 9.54585 158.386 9.54585H158.596C159.171 9.54471 159.735 9.69773 160.234 9.98968C160.732 10.2816 161.147 10.7023 161.438 11.2099V23.6504C161.147 24.1574 160.732 24.5776 160.233 24.8692C159.735 25.1608 159.17 25.3137 158.596 25.3128H158.386C157.799 25.3213 157.141 25.3231 156.37 25.3231Z" fill="#1C1C1C"/>
<path d="M142.171 4.88945C141.648 4.9068 141.133 5.03639 140.661 5.26986C140.19 5.50334 139.771 5.83554 139.432 6.24506V4.87402H134.87V30H139.432V11.2219C139.723 10.7146 140.138 10.294 140.636 10.0021C141.135 9.7102 141.699 9.55703 142.273 9.55783H142.486C143.064 9.55783 143.729 9.55783 144.502 9.55783H144.846V4.87402L142.273 4.88602L142.171 4.88945Z" fill="#1C1C1C"/>
<path d="M43.8193 15.3745H38.8313C38.1153 15.3209 37.4456 14.9916 36.9567 14.4525C36.4679 13.9135 36.1962 13.2047 36.1962 12.4687C36.1962 11.7327 36.4679 11.024 36.9567 10.4849C37.4456 9.94588 38.1153 9.6165 38.8313 9.56298H49.4894V4.8689H38.5538C36.6621 4.8689 34.8479 5.63935 33.5102 7.01076C32.1726 8.38217 31.4211 10.2422 31.4211 12.1817C31.4211 14.1211 32.1726 15.9812 33.5102 17.3526C34.8479 18.724 36.6621 19.4944 38.5538 19.4944H39.6036H43.5402C43.9306 19.4637 44.3229 19.5159 44.6927 19.648C45.0624 19.78 45.4016 19.989 45.6888 20.2617C45.9761 20.5345 46.2053 20.8651 46.362 21.233C46.5188 21.6008 46.5997 21.9979 46.5997 22.3993C46.5997 22.8007 46.5188 23.1978 46.362 23.5657C46.2053 23.9335 45.9761 24.2642 45.6888 24.5369C45.4016 24.8097 45.0624 25.0186 44.6927 25.1507C44.3229 25.2827 43.9306 25.335 43.5402 25.3042H32.8854V29.9966H43.8193C45.7111 29.9966 47.5253 29.2261 48.8629 27.8547C50.2006 26.4833 50.9521 24.6233 50.9521 22.6838C50.9521 20.7443 50.2006 18.8843 48.8629 17.5129C47.5253 16.1415 45.7111 15.371 43.8193 15.371V15.3745Z" fill="url(#paint4_linear_1_593)"/>
<defs>
<linearGradient id="paint0_linear_1_593" x1="86.1058" y1="21.4823" x2="-69.1441" y2="-9.18639" gradientUnits="userSpaceOnUse">
<stop stop-color="#3285E1"/>
<stop offset="1" stop-color="#82D2FF"/>
</linearGradient>
<linearGradient id="paint1_linear_1_593" x1="84.0331" y1="31.976" x2="-71.2169" y2="1.30726" gradientUnits="userSpaceOnUse">
<stop stop-color="#3285E1"/>
<stop offset="1" stop-color="#82D2FF"/>
</linearGradient>
<linearGradient id="paint2_linear_1_593" x1="86.4585" y1="19.7052" x2="-68.7931" y2="-10.9651" gradientUnits="userSpaceOnUse">
<stop stop-color="#3285E1"/>
<stop offset="1" stop-color="#82D2FF"/>
</linearGradient>
<linearGradient id="paint3_linear_1_593" x1="84.0882" y1="31.6983" x2="-71.1618" y2="1.02796" gradientUnits="userSpaceOnUse">
<stop stop-color="#3285E1"/>
<stop offset="1" stop-color="#82D2FF"/>
</linearGradient>
<linearGradient id="paint4_linear_1_593" x1="85.1045" y1="26.5536" x2="-70.147" y2="-4.11517" gradientUnits="userSpaceOnUse">
<stop stop-color="#3285E1"/>
<stop offset="1" stop-color="#82D2FF"/>
</linearGradient>
</defs>
</svg>
